<svg height="512pt" viewBox="0 0 512 512" width="512pt" xmlns="http://www.w3.org/2000/svg"><path d="m512 482v30h-512v-512h30v482zm0 0" fill="#575f64"/><path d="m286 482h226v30h-226zm0 0" fill="#32393f"/><path d="m90 270h30v75h-30zm0 0" fill="#575f64"/><path d="m105 270h15v75h-15zm0 0" fill="#32393f"/><path d="m90 210h30v30h-30zm0 0" fill="#575f64"/><path d="m105 210h15v30h-15zm0 0" fill="#32393f"/><path d="m60 330v122h90v-122zm0 0" fill="#d8d8fc"/><path d="m105 330h45v122h-45zm0 0" fill="#a3a3d1"/><path d="m211 210h30v75h-30zm0 0" fill="#575f64"/><path d="m226 210h15v75h-15zm0 0" fill="#32393f"/><path d="m211 150h30v30h-30zm0 0" fill="#575f64"/><path d="m226 150h15v30h-15zm0 0" fill="#32393f"/><path d="m180 270v182h91v-182zm0 0" fill="#64e1dc"/><path d="m226 270h45v182h-45zm0 0" fill="#00c8c8"/><path d="m331 150h30v75h-30zm0 0" fill="#575f64"/><path d="m346 150h15v75h-15zm0 0" fill="#32393f"/><path d="m331 90h30v30h-30zm0 0" fill="#575f64"/><path d="m346 90h15v30h-15zm0 0" fill="#32393f"/><path d="m301 210v242h91v-242zm0 0" fill="#ffd396"/><path d="m346 210h46v242h-46zm0 0" fill="#ffb64c"/><path d="m452 60h30v75h-30zm0 0" fill="#575f64"/><path d="m467 60h15v75h-15zm0 0" fill="#32393f"/><path d="m452 0h30v30h-30zm0 0" fill="#575f64"/><path d="m467 0h15v30h-15zm0 0" fill="#32393f"/><path d="m422 120v332h90v-332zm0 0" fill="#ff641a"/><path d="m467 120h45v332h-45zm0 0" fill="#f03800"/></svg>