<svg height="511pt" viewBox="1 0 511.999 511" width="511pt" xmlns="http://www.w3.org/2000/svg"><path d="m232.300781 272.027344s-151.5-152.5-154.800781-155.800782c-1.800781 2.101563-8.101562 8.402344-10.5 10.800782-43.800781 43.5-67 101.5-67 160 0 92.398437 57.101562 172.800781 138.402344 207.300781 26.996094 11.398437 56.699218 17.699219 87.597656 17.699219 124.5 0 225-101.398438 225-225v-15s-213.902344 0-218.699219 0zm0 0" fill="#ff641a"/><path d="m512 242.027344h-245.894531l67.296875-237.503906 14.414062 4.101562c96.078125 27.410156 164.183594 118.398438 164.183594 218.402344zm0 0" fill="#00c8c8"/><path d="m240.089844 232.332031-169.175782-170.175781 12.863282-10.488281c56.292968-45.910157 134.839844-62.757813 204.039062-43.042969l14.425782 4.117188zm0 0" fill="#575f64"/><path d="m451 272.027344v15c0 123.601562-100.5 225-225 225-30.902344 0-60.601562-6.300782-87.601562-17.699219l93.902343-222.300781zm0 0" fill="#f03800"/></svg>