<svg height="512pt" viewBox="0 -16 512 512" width="512pt" xmlns="http://www.w3.org/2000/svg"><path d="m512 120v360h-512v-360l30-30h451zm0 0" fill="#f2f2fc"/><path d="m512 120v360h-256v-390h225zm0 0" fill="#d8d8fc"/><path d="m0 0h512v120h-512zm0 0" fill="#575f64"/><path d="m256 0h256v120h-256zm0 0" fill="#32393f"/><g fill="#a3a3d1"><path d="m361 210h60v30h-60zm0 0"/><path d="m361 270h60v30h-60zm0 0"/><path d="m361 330h60v30h-60zm0 0"/><path d="m361 390h60v30h-60zm0 0"/></g><path d="m61 45h210v30h-210zm0 0" fill="#f2f2fc"/><path d="m435.996094 38.785156 21.210937 21.210938-21.210937 21.210937-21.210938-21.210937zm0 0" fill="#f03800"/><path d="m375.996094 38.785156 21.210937 21.210938-21.210937 21.210937-21.207032-21.210937zm0 0" fill="#f03800"/><path d="m316 38.789062 21.210938 21.207032-21.210938 21.210937-21.210938-21.210937zm0 0" fill="#f03800"/><path d="m326.5 235.5-70.5 70.800781-30 30-60-60-49.5 49.199219-21-21 70.5-70.800781 60 60 30-30 49.5-49.199219zm0 0" fill="#575f64"/><path d="m326.5 235.5-70.5 70.800781v-42.601562l49.5-49.199219zm0 0" fill="#32393f"/><path d="m331 390v30h-240v-210h30v180zm0 0" fill="#575f64"/><path d="m256 390h75v30h-75zm0 0" fill="#32393f"/><path d="m331 210v90h-30v-60h-60v-30zm0 0" fill="#575f64"/><path d="m331 210v90h-30v-60h-45v-30zm0 0" fill="#32393f"/><path d="m256 45h15v30h-15zm0 0" fill="#d8d8fc"/></svg>