<?xml version="1.0" encoding="iso-8859-1"?>
<!-- Generator: Adobe Illustrator 22.1.0, SVG Export Plug-In . SVG Version: 6.00 Build 0)  -->
<svg xmlns="http://www.w3.org/2000/svg" xmlns:xlink="http://www.w3.org/1999/xlink" version="1.1" id="Layer_1_1_" x="0px" y="0px" viewBox="0 0 64 64" style="enable-background:new 0 0 64 64;" xml:space="preserve" width="512" height="512">
<linearGradient id="SVGID_1_" gradientUnits="userSpaceOnUse" x1="32" y1="63" x2="32" y2="1">
	<stop offset="0" style="stop-color:#9F2FFF"/>
	<stop offset="1" style="stop-color:#0BB1D3"/>
</linearGradient>
<path style="fill:url(#SVGID_1_);" d="M58.606,39.91l2.11-3.236l-5.391-5.39l-3.236,2.109c-0.479-0.231-0.975-0.436-1.481-0.612  L49.812,29H47V1H9.586L1,9.586V53h31.8l-1.517,2.326l5.391,5.389l3.236-2.108c0.479,0.231,0.975,0.436,1.481,0.611L42.188,63h7.623  l0.797-3.782c0.507-0.176,1.002-0.38,1.481-0.611l3.236,2.108l5.391-5.389l-2.11-3.236c0.231-0.479,0.436-0.975,0.611-1.481  L63,49.812v-7.623l-3.782-0.797C59.042,40.885,58.838,40.39,58.606,39.91z M9,4.414V9H4.414L9,4.414z M3,11h8V3h34v26h-2.812  l-0.797,3.782c-0.507,0.176-1.002,0.38-1.481,0.612l-3.236-2.109l-5.391,5.39l2.11,3.236c-0.231,0.479-0.436,0.975-0.611,1.481  L29,42.188v7.623l3.782,0.797c0.046,0.134,0.111,0.259,0.162,0.392H3V11z M61,48.188l-3.342,0.704l-0.171,0.569  c-0.231,0.772-0.539,1.518-0.915,2.216L56.291,52.2l1.863,2.858l-3.096,3.096L52.2,56.291l-0.522,0.281  c-0.698,0.376-1.443,0.684-2.216,0.915l-0.569,0.171L48.188,61h-4.377l-0.704-3.342l-0.569-0.171  c-0.772-0.231-1.518-0.539-2.216-0.915L39.8,56.291l-2.858,1.863l-3.096-3.096l1.863-2.858l-0.281-0.522  c-0.376-0.698-0.684-1.443-0.915-2.216l-0.171-0.569L31,48.188v-4.377l3.342-0.704l0.171-0.569c0.231-0.772,0.539-1.518,0.915-2.216  l0.281-0.522l-1.864-2.858l3.097-3.096l2.858,1.863l0.522-0.281c0.698-0.376,1.443-0.684,2.216-0.915l0.569-0.171L43.812,31h4.377  l0.704,3.342l0.569,0.171c0.772,0.231,1.518,0.539,2.216,0.915l0.522,0.281l2.858-1.863l3.097,3.096L56.291,39.8l0.281,0.522  c0.376,0.698,0.684,1.443,0.915,2.216l0.171,0.569L61,43.812V48.188z M46,36c-5.514,0-10,4.486-10,10s4.486,10,10,10s10-4.486,10-10  S51.514,36,46,36z M46,54c-4.411,0-8-3.589-8-8s3.589-8,8-8s8,3.589,8,8S50.411,54,46,54z M46,40c-3.309,0-6,2.691-6,6s2.691,6,6,6  s6-2.691,6-6S49.309,40,46,40z M46,50c-2.206,0-4-1.794-4-4s1.794-4,4-4s4,1.794,4,4S48.206,50,46,50z M32,27  c6.065,0,11-4.935,11-11S38.065,5,32,5S21,9.935,21,16S25.935,27,32,27z M33,24.941V17h7.941C40.478,21.164,37.165,24.478,33,24.941  z M40.941,15H33V7.059C37.165,7.522,40.478,10.836,40.941,15z M31,7.059v17.882c-4.493-0.5-8-4.317-8-8.941S26.507,7.558,31,7.059z   M5,49h6V37H5V49z M7,39h2v8H7V39z M13,49h6V33h-6V49z M15,35h2v12h-2V35z M21,49h6V29h-6V49z M23,31h2v16h-2V31z M5,13h14v2H5V13z   M5,17h14v2H5V17z M5,21h14v2H5V21z M5,25h14v2H5V25z"/>
</svg>
