<svg height="512pt" viewBox="0 -4 512.00108 512" width="512pt" xmlns="http://www.w3.org/2000/svg" xmlns:xlink="http://www.w3.org/1999/xlink"><linearGradient id="a"><stop offset="0" stop-color="#662d91"/><stop offset=".437" stop-color="#3873b3"/><stop offset="1" stop-color="#00c9dd"/></linearGradient><linearGradient id="b" gradientTransform="matrix(1.08242 0 0 -1.08242 0 506.762058)" gradientUnits="userSpaceOnUse" x1="19.7289" x2="467.4764" xlink:href="#a" y1="479.98" y2="32.2325"/><linearGradient id="c" gradientTransform="matrix(1.08242 0 0 -1.08242 0 506.762058)" gradientUnits="userSpaceOnUse" x1="-102.4864" x2="345.261" xlink:href="#a" y1="357.8046" y2="-89.9428"/><linearGradient id="d" gradientTransform="matrix(1.08242 0 0 -1.08242 0 506.762058)" gradientUnits="userSpaceOnUse" x1="-15.7671" x2="431.9803" xlink:href="#a" y1="444.5239" y2="-3.2235"/><linearGradient id="e" gradientTransform="matrix(1.08242 0 0 -1.08242 0 506.762058)" gradientUnits="userSpaceOnUse" x1="74.8939" x2="522.6414" xlink:href="#a" y1="535.185" y2="87.4375"/><linearGradient id="f" gradientTransform="matrix(1.08242 0 0 -1.08242 0 506.762058)" gradientUnits="userSpaceOnUse" x1="-47.3014" x2="400.446" xlink:href="#a" y1="412.9897" y2="-34.7578"/><linearGradient id="g" gradientTransform="matrix(1.08242 0 0 -1.08242 0 506.762058)" gradientUnits="userSpaceOnUse" x1="39.4179" x2="487.1653" xlink:href="#a" y1="499.7089" y2="51.9615"/><linearGradient id="h" gradientTransform="matrix(1.08242 0 0 -1.08242 0 506.762058)" gradientUnits="userSpaceOnUse" x1="130.0789" x2="577.8264" xlink:href="#a" y1="590.37" y2="142.6225"/><linearGradient id="i" gradientTransform="matrix(1.08242 0 0 -1.08242 0 506.762058)" gradientUnits="userSpaceOnUse" x1="7.8836" x2="455.631" xlink:href="#a" y1="468.1747" y2="20.4272"/><linearGradient id="j" gradientTransform="matrix(1.08242 0 0 -1.08242 0 506.762058)" gradientUnits="userSpaceOnUse" x1="94.6029" x2="542.3503" xlink:href="#a" y1="554.8939" y2="107.1465"/><linearGradient id="k" gradientTransform="matrix(1.08242 0 0 -1.08242 0 506.762058)" gradientUnits="userSpaceOnUse" x1="3.6057" x2="451.3452" xlink:href="#a" y1="463.8968" y2="16.1493"/><linearGradient id="l" gradientTransform="matrix(1.08242 0 0 -1.08242 0 506.762058)" gradientUnits="userSpaceOnUse" x1="185.2639" x2="633.0114" xlink:href="#a" y1="645.555" y2="197.8076"/><linearGradient id="m" gradientTransform="matrix(1.08242 0 0 -1.08242 0 506.762058)" gradientUnits="userSpaceOnUse" x1="63.0686" x2="510.816" xlink:href="#a" y1="523.3596" y2="75.6122"/><linearGradient id="n" gradientTransform="matrix(1.08242 0 0 -1.08242 0 506.762058)" gradientUnits="userSpaceOnUse" x1="149.7879" x2="597.5353" xlink:href="#a" y1="610.0789" y2="162.3315"/><path d="m460.800781 409.601562c0 9.425782-7.640625 17.066407-17.066406 17.066407s-17.066406-7.640625-17.066406-17.066407c0-9.425781 7.640625-17.066406 17.066406-17.066406s17.066406 7.640625 17.066406 17.066406zm0 0" fill="url(#b)"/><path d="m34.132812 409.601562c0 4.710938 3.820313 8.53125 8.535157 8.53125h273.066406c4.710937 0 8.53125-3.820312 8.53125-8.53125 0-4.714843-3.820313-8.535156-8.53125-8.535156h-273.066406c-4.714844 0-8.535157 3.820313-8.535157 8.535156zm0 0" fill="url(#c)"/><path d="m349.867188 418.132812h34.132812c4.710938 0 8.535156-3.820312 8.535156-8.53125 0-4.714843-3.824218-8.535156-8.535156-8.535156h-34.132812c-4.714844 0-8.535157 3.820313-8.535157 8.535156 0 4.710938 3.820313 8.53125 8.535157 8.53125zm0 0" fill="url(#d)"/><path d="m460.800781 290.132812c0 9.425782-7.640625 17.066407-17.066406 17.066407s-17.066406-7.640625-17.066406-17.066407c0-9.425781 7.640625-17.066406 17.066406-17.066406s17.066406 7.640625 17.066406 17.066406zm0 0" fill="url(#e)"/><path d="m315.734375 281.601562h-273.066406c-4.714844 0-8.535157 3.820313-8.535157 8.53125 0 4.714844 3.820313 8.535157 8.535157 8.535157h273.066406c4.710937 0 8.53125-3.820313 8.53125-8.535157 0-4.710937-3.820313-8.53125-8.53125-8.53125zm0 0" fill="url(#f)"/><path d="m384 281.601562h-34.132812c-4.710938 0-8.535157 3.820313-8.535157 8.53125 0 4.714844 3.824219 8.535157 8.535157 8.535157h34.132812c4.714844 0 8.535156-3.820313 8.535156-8.535157 0-4.710937-3.820312-8.53125-8.535156-8.53125zm0 0" fill="url(#g)"/><path d="m460.800781 170.667969c0 9.425781-7.640625 17.066406-17.066406 17.066406s-17.066406-7.640625-17.066406-17.066406 7.640625-17.066407 17.066406-17.066407 17.066406 7.640626 17.066406 17.066407zm0 0" fill="url(#h)"/><path d="m34.132812 170.667969c0 4.710937 3.820313 8.53125 8.535157 8.53125h273.066406c4.710937 0 8.53125-3.820313 8.53125-8.53125 0-4.714844-3.820313-8.535157-8.53125-8.535157h-273.066406c-4.714844 0-8.535157 3.820313-8.535157 8.535157zm0 0" fill="url(#i)"/><path d="m349.867188 179.199219h34.132812c4.710938 0 8.535156-3.820313 8.535156-8.53125 0-4.714844-3.824218-8.535157-8.535156-8.535157h-34.132812c-4.714844 0-8.535157 3.820313-8.535157 8.535157 0 4.710937 3.820313 8.53125 8.535157 8.53125zm0 0" fill="url(#j)"/><path d="m486.402344 0h-460.800782c-14.140624 0-25.601562 11.460938-25.601562 25.601562v51.199219c0 14.136719 11.460938 25.601563 25.601562 25.601563h8.53125v17.066406h-8.53125c-14.140624 0-25.601562 11.460938-25.601562 25.597656v51.199219c0 14.140625 11.460938 25.601563 25.601562 25.601563h341.332032v17.066406h-341.332032c-14.140624 0-25.601562 11.460937-25.601562 25.601562v51.199219c0 14.136719 11.460938 25.601563 25.601562 25.601563h8.53125v17.066406h-8.53125c-14.140624 0-25.601562 11.460937-25.601562 25.597656v51.199219c0 14.140625 11.460938 25.601562 25.601562 25.601562h341.332032v25.601563h-358.398438c-4.714844 0-8.535156 3.820312-8.535156 8.53125 0 4.714844 3.820312 8.535156 8.535156 8.535156h494.933594c4.710938 0 8.53125-3.820312 8.53125-8.535156 0-4.710938-3.820312-8.53125-8.53125-8.53125h-17.066406v-25.601563c14.136718 0 25.597656-11.460937 25.597656-25.601562v-51.199219c0-14.136719-11.460938-25.597656-25.597656-25.597656h-332.800782v-17.066406h332.796876c14.140624 0 25.601562-11.464844 25.601562-25.601563v-51.199219c0-14.140625-11.460938-25.601562-25.601562-25.601562v-17.066406c14.140624 0 25.601562-11.460938 25.601562-25.601563v-51.199219c0-14.136718-11.460938-25.597656-25.601562-25.597656h-332.796876v-17.066406h332.796876c14.140624 0 25.601562-11.464844 25.601562-25.601563v-51.199219c0-14.140624-11.460938-25.601562-25.597656-25.601562zm-435.203125 102.402344h17.066406v17.066406h-17.066406zm51.199219 0v17.066406h-17.066407v-17.066406zm281.601562 119.464844h17.066406v17.066406h-17.066406zm51.199219 0v17.066406h-17.066407v-17.066406zm-384 119.46875h17.066406v17.066406h-17.066406zm51.199219 0v17.066406h-17.066407v-17.066406zm281.601562 145.0625v-25.597657h17.066406v25.597657zm34.132812 0v-25.597657h17.066407v25.597657zm51.199219 0h-17.066406v-25.597657h17.066406zm25.601563-102.398438v51.199219c0 4.714843-3.820313 8.535156-8.535156 8.535156h-460.796876c-4.714843 0-8.535156-3.820313-8.535156-8.535156v-51.199219c0-4.710938 3.820313-8.53125 8.535156-8.53125h460.800782c4.710937 0 8.53125 3.820312 8.53125 8.53125zm-358.398438-25.597656h-17.070312v-17.066406h17.070312zm358.398438-93.867188v51.199219c0 4.710937-3.820313 8.535156-8.535156 8.535156h-460.796876c-4.714843 0-8.535156-3.824219-8.535156-8.535156v-51.199219c0-4.714844 3.820313-8.535156 8.535156-8.535156h460.800782c4.710937 0 8.53125 3.820312 8.53125 8.535156zm-25.601563-25.601562h-17.066406v-17.066406h17.066406zm25.601563-93.867188v51.199219c0 4.714844-3.820313 8.535156-8.535156 8.535156h-460.796876c-4.714843 0-8.535156-3.820312-8.535156-8.535156v-51.199219c0-4.710937 3.820313-8.53125 8.535156-8.53125h460.800782c4.710937 0 8.53125 3.820313 8.53125 8.53125zm-358.398438-25.597656h-17.070312v-17.066406h17.070312zm358.398438-42.667969c0 4.710938-3.820313 8.535157-8.535156 8.535157h-460.796876c-4.714843 0-8.535156-3.824219-8.535156-8.535157v-51.199219c0-4.714843 3.820313-8.535156 8.535156-8.535156h460.800782c4.710937 0 8.53125 3.820313 8.53125 8.535156zm0 0" fill="url(#k)"/><path d="m460.800781 51.199219c0 9.425781-7.640625 17.066406-17.066406 17.066406s-17.066406-7.640625-17.066406-17.066406 7.640625-17.066407 17.066406-17.066407 17.066406 7.640626 17.066406 17.066407zm0 0" fill="url(#l)"/><path d="m315.734375 42.667969h-273.066406c-4.714844 0-8.535157 3.820312-8.535157 8.535156 0 4.710937 3.820313 8.53125 8.535157 8.53125h273.066406c4.710937 0 8.53125-3.820313 8.53125-8.53125 0-4.714844-3.820313-8.535156-8.53125-8.535156zm0 0" fill="url(#m)"/><path d="m384 42.667969h-34.132812c-4.710938 0-8.535157 3.820312-8.535157 8.535156 0 4.710937 3.824219 8.53125 8.535157 8.53125h34.132812c4.714844 0 8.535156-3.820313 8.535156-8.53125 0-4.714844-3.820312-8.535156-8.535156-8.535156zm0 0" fill="url(#n)"/></svg>