<svg xmlns="http://www.w3.org/2000/svg" width="97" height="18.388" viewBox="0 0 97 18.388">
    <g transform="translate(0)">
        <path d="M144.27,214.3h-1.735l4.67-12.9h1.719Z" transform="translate(-132.425 -201.394)" fill="#dc00fc" />
        <path d="M115.4,210.406l7.85-3.5v2.138l-5.309,2.173,5.309,2.191v2.138l-7.85-3.522Z" transform="translate(-115.397 -204.849)" fill="#dc00fc" />
        <path d="M363.87,213.036l-7.068,3.171v-1.925l4.781-1.972-4.781-1.957V208.43l7.068,3.155Z" transform="translate(-266.87 -205.809)" fill="#dc00fc" />
        <path d="M206.711,219.246H205.2v-8.139h1.495v1.03c.017,0,.05.017.067.017a3.169,3.169,0,0,1,2.575-1.262c2.275,0,2.89,1.694,2.89,3.172v5.182h-1.511v-5a1.818,1.818,0,0,0-1.927-2.076c-1.328,0-2.076,1.1-2.076,2.474Z" transform="translate(-171.744 -207.353)" fill="#12356B" />
        <path d="M236.667,212.988c1,.3,2.425.7,2.757.78l-.548,1.495c-.865-.232-3.771-1.3-4.934-1.811-3.322-.15-5.116-2.591-5.116-6,0-3.555,1.827-6.063,5.381-6.063,3.538,0,5.366,2.508,5.366,6.063,0,2.558-1,4.618-2.907,5.531m-6.162-5.531c0,2.209.964,4.651,3.7,4.651s3.688-2.408,3.688-4.651-.947-4.7-3.688-4.7-3.7,2.492-3.7,4.7" transform="translate(-186.57 -201.394)" fill="#12356B" />
        <path d="M268.252,211.426h1.512v8.156h-1.512v-1.046c-.017,0-.067-.017-.067-.033a2.917,2.917,0,0,1-2.491,1.245c-2.309,0-2.807-1.678-2.807-3.156v-5.166H264.4v4.983c0,1.379.482,2.077,1.844,2.077,1.329,0,2.01-1.1,2.01-2.475Z" transform="translate(-207.942 -207.689)" fill="#12356B" />
        <path d="M293.016,215.513h-5.7c.033,1.528.631,2.691,2.258,2.691a1.9,1.9,0,0,0,1.91-1.545h1.429a3.16,3.16,0,0,1-3.422,2.758c-2.674,0-3.737-1.894-3.737-4.286,0-2.259,1.246-4.285,3.638-4.285,2.79,0,3.637,2.143,3.621,4.668m-1.529-1.163c-.1-1.329-.747-2.259-2.059-2.259a2.24,2.24,0,0,0-2.076,2.259Z" transform="translate(-222.292 -207.325)" fill="#12356B" />
        <path d="M313.492,216.987c0-2.093-4.784-.864-4.784-3.687,0-1.113.715-2.408,3.04-2.408,1.362,0,2.906.548,2.99,2.342H313.36a1.475,1.475,0,0,0-1.645-1.162c-1.013,0-1.511.564-1.511,1.129,0,1.528,4.8.681,4.8,3.737,0,1.3-1,2.475-3.289,2.475-1.561,0-3.155-.664-3.222-2.558h1.4a1.728,1.728,0,0,0,1.894,1.379c1.229,0,1.711-.648,1.711-1.246" transform="translate(-236.558 -207.353)" fill="#12356B" />
        <path d="M330.765,208.436v4.435c0,1.2.266,1.478,1.263,1.478.282,0,.664-.034,1.13-.083v1.2a6.838,6.838,0,0,1-1.362.149c-1.844,0-2.542-.747-2.542-2.574V208.42h-1.412v-1.163h1.445l.316-2.475h1.163v2.475h2.076v1.179Z" transform="translate(-248.698 -203.52)" fill="#12356B" />
        <path d="M270.108,241.372a1.053,1.053,0,0,1-.978,1.181.808.808,0,0,1-.729-.35h-.018v.3h-.415v-3.367h.415v1.435h.018a.927.927,0,0,1,.738-.387c.7,0,.969.6.969,1.185m-.434,0c0-.419-.161-.853-.636-.853s-.65.452-.65.817c0,.443.134.89.669.89.406,0,.618-.355.618-.853" transform="translate(-211.13 -225.078)" fill="#12356B" />
        <path d="M275.556,243.889c.069-.235.166-.494.258-.752l.383-1.038h.438l-1.245,3.224h-.43l.374-.964-.877-2.26h.452l.369,1.005c.134.36.18.517.258.784Z" transform="translate(-215.202 -226.935)" fill="#12356B" />
        <path d="M285.929,241.934h-1.4l-.3.807h-.457l1.241-3.229h.461l1.232,3.229h-.471Zm-.706-1.979c-.092.277-.162.48-.277.8l-.286.807H285.8l-.351-.946c-.069-.194-.152-.434-.207-.66Z" transform="translate(-221.045 -225.312)" fill="#12356B" />
        <rect width="0.42" height="3.367" transform="translate(65.987 14.061)" fill="#12356B" />
        <path d="M295.522,244a.017.017,0,0,1-.014,0v1.222h-.42v-3.224h.415v.332h.018a.862.862,0,0,1,.724-.387c.687,0,.973.558.973,1.158s-.3,1.208-1,1.208a.838.838,0,0,1-.7-.313m-.014-.83c0,.364.157.816.646.816.466,0,.633-.443.633-.849,0-.517-.2-.862-.614-.862-.54,0-.664.484-.664.895" transform="translate(-228.146 -226.841)" fill="#12356B" />
        <path d="M302.455,242.506h-.42v-3.367h.415v1.393s.014,0,.019,0a.844.844,0,0,1,.715-.351.774.774,0,0,1,.8.881v1.439h-.42v-1.388a.5.5,0,0,0-.535-.576c-.369,0-.577.3-.577.687Z" transform="translate(-232.506 -225.078)" fill="#12356B" />
        <path d="M309.837,242.688c0-.272-.184-.41-.456-.41a.433.433,0,0,0-.489.359h-.411c.06-.507.448-.687.9-.687a.763.763,0,0,1,.872.8v1.522h-.387v-.313h-.019a.755.755,0,0,1-.706.364.681.681,0,0,1-.757-.687c0-.577.489-.8,1.121-.8h.327Zm-.59,1.31c.457,0,.59-.314.59-.655v-.207h-.263c-.379,0-.775.074-.775.461a.4.4,0,0,0,.447.4" transform="translate(-236.492 -226.841)" fill="#12356B" />
        <path d="M318.06,242.74v-3.229H319.3c.475,0,.945.226.945.784a.694.694,0,0,1-.563.687.017.017,0,0,0,0,.009.789.789,0,0,1,.692.83.908.908,0,0,1-.987.918Zm1.075-1.914c.346,0,.655-.129.655-.489,0-.378-.314-.443-.664-.443H318.5v.932Zm-.637,1.536h.734c.392,0,.683-.166.683-.567,0-.494-.387-.59-.687-.59H318.5Z" transform="translate(-242.561 -225.311)" fill="#12356B" />
        <path d="M326.814,242.688c0-.272-.185-.41-.457-.41a.433.433,0,0,0-.489.359h-.411c.06-.507.448-.687.9-.687a.763.763,0,0,1,.872.8v1.522h-.387v-.313h-.018a.755.755,0,0,1-.706.364.68.68,0,0,1-.756-.687c0-.577.489-.8,1.121-.8h.328Zm-.591,1.31c.457,0,.591-.314.591-.655v-.207h-.263c-.378,0-.775.074-.775.461a.4.4,0,0,0,.447.4" transform="translate(-247.145 -226.841)" fill="#12356B" />
        <path d="M332.138,244.27h-.42v-2.26h.415v.286s.014,0,.019,0a.882.882,0,0,1,.715-.351.774.774,0,0,1,.8.881v1.439h-.42v-1.388a.5.5,0,0,0-.535-.576c-.369,0-.577.3-.577.687Z" transform="translate(-251.13 -226.841)" fill="#12356B" />
        <path d="M339.4,241.073c.286.48.572.959.862,1.435h-.466l-.673-1.14-.392.42v.72h-.42V239.14h.42v2.136l.959-1.033h.489Z" transform="translate(-255.265 -225.078)" fill="#12356B" />
        <path d="M172.032,213.734V202.107h7.459v1.4h-5.847v3.7h5.382v1.4h-5.382v5.132Z" transform="translate(-150.933 -201.842)" fill="#12356B" />
        <path d="M197.227,203.891h-1.611V202.33h1.611Zm-.05,9.982h-1.511v-8.139h1.511Z" transform="translate(-165.731 -201.981)" fill="#12356B" />
    </g>
</svg>
