<svg height="512pt" viewBox="0 -51 512 511" width="512pt" xmlns="http://www.w3.org/2000/svg" xmlns:xlink="http://www.w3.org/1999/xlink"><linearGradient id="a"><stop offset="0" stop-color="#662d91"/><stop offset=".437" stop-color="#3873b3"/><stop offset="1" stop-color="#00c9dd"/></linearGradient><linearGradient id="b" gradientTransform="matrix(.995687 0 0 -.995687 0 452.113795)" gradientUnits="userSpaceOnUse" x1="54.8176" x2="539.0399" xlink:href="#a" y1="465.5364" y2="-18.6773"/><linearGradient id="c" gradientTransform="matrix(.995687 0 0 -.995687 0 452.113795)" gradientUnits="userSpaceOnUse" x1="-44.9941" x2="439.2281" xlink:href="#a" y1="365.7247" y2="-118.4975"/><linearGradient id="d" gradientTransform="matrix(.995687 0 0 -.995687 0 452.113795)" gradientUnits="userSpaceOnUse" x1="2.1426" x2="486.3648" xlink:href="#a" y1="412.8614" y2="-71.3609"/><path d="m506.164062 52.136719-28.296874-9.429688v-42.207031h-17.066407v36.515625l-82.636719-27.546875v.101562c-.863281-.328124-1.777343-.507812-2.699218-.539062h-307.199219c-4.710937 0-8.53125 3.820312-8.53125 8.535156v65.058594l-57.625 65.851562c-1.335937 1.566407-2.0546875 3.566407-2.0234375 5.621094h-.0859375v21.335938c.015625 21.207031 17.222656 38.386718 38.429688 38.367187 7.585937-.003906 14.996093-2.257812 21.304687-6.46875v194.234375c0 4.710938 3.820313 8.53125 8.53125 8.53125h435.203125c4.710938 0 8.53125-3.820312 8.53125-8.53125v-341.332031c0-3.675781-2.351562-6.9375-5.835938-8.097656zm-337.203124 42.230469-44.800782 51.199218h-37.121094l44.800782-51.199218zm134.742187 51.199218h-37.464844l44.800781-51.199218h43.792969zm-60.078125 0h-37.117188l44.796876-51.199218h37.121093zm-59.730469 0h-37.121093l44.800781-51.199218h37.117187zm-107.09375 17.066406h42.667969v12.800782c0 11.78125-9.554688 21.332031-21.335938 21.332031s-21.332031-9.550781-21.332031-21.332031zm59.734375 0h42.664063v12.800782c0 11.78125-9.550781 21.332031-21.332031 21.332031s-21.332032-9.550781-21.332032-21.332031zm59.730469 0h42.667969v12.800782c0 11.78125-9.550782 21.332031-21.332032 21.332031s-21.335937-9.550781-21.335937-21.332031zm59.734375 0h42.667969v12.800782c0 11.78125-9.550781 21.332031-21.335938 21.332031-11.78125 0-21.332031-9.550781-21.332031-21.332031zm110.933594-56.199218v39.132812h-39.132813zm-290.132813-80.332032h290.132813v51.199219h-290.132813zm-4.660156 68.265626h37.085937l-44.800781 51.199218h-37.117187zm-33.742187 102.398437c-11.78125 0-21.332032-9.550781-21.332032-21.332031v-12.800782h42.667969v12.800782c0 11.78125-9.554687 21.332031-21.335937 21.332031zm226.132812 196.269531v-136.535156h68.269531v136.535156zm85.335938 0v-145.066406c0-4.714844-3.820313-8.535156-8.53125-8.535156h-85.335938c-4.710938 0-8.53125 3.820312-8.53125 8.535156v145.066406h-170.667969v-185.703125c16.539063 11.152344 38.886719 7.636719 51.199219-8.054687 12.898438 16.492187 36.726562 19.410156 53.222656 6.511718 2.425782-1.898437 4.613282-4.085937 6.511719-6.511718 12.898437 16.492187 36.726563 19.410156 53.222656 6.511718 2.425781-1.898437 4.613281-4.085937 6.511719-6.511718 13.074219 16.582031 37.117188 19.429687 53.703125 6.355468 9.242187-7.289062 14.617187-18.425781 14.5625-30.199218v-12.800782h51.199219v230.402344zm145.066406 0h-110.933594v-363.625l76.800781 25.601563v30.820312h-17.066406v17.070313h25.597656c4.714844 0 8.535157-3.824219 8.535157-8.535156v-33.671876l17.066406 5.691407zm0 0" fill="url(#b)"/><path d="m221.867188 239.433594h-119.464844c-4.714844 0-8.535156 3.820312-8.535156 8.53125v93.867187c0 4.714844 3.820312 8.535157 8.535156 8.535157h119.464844c4.710937 0 8.53125-3.820313 8.53125-8.535157v-93.867187c0-4.710938-3.820313-8.53125-8.53125-8.53125zm-8.535157 39.132812-54.730469 54.734375h-18.535156l73.265625-73.269531zm-71.796875-22.066406-30.601562 30.601562v-30.601562zm-30.601562 54.734375 54.734375-54.734375h27.066406l-76.800781 76.800781h-5zm71.800781 22.066406 30.597656-30.601562v30.601562zm0 0" fill="url(#c)"/><path d="m273.066406 307.699219h17.066406v25.601562h-17.066406zm0 0" fill="url(#d)"/></svg>