<svg height="512pt" viewBox="0 0 512 512" width="512pt" xmlns="http://www.w3.org/2000/svg"><path d="m0 362v150h361v-150zm0 0" fill="#f2f2fc"/><path d="m196 362h165v150h-165zm0 0" fill="#d8d8fc"/><g fill="#32393f"><path d="m466 379.5625h-30v-122.5625c0-8.277344-6.722656-15-15-15h-45v-30h45c24.8125 0 45 20.1875 45 45zm0 0"/><path d="m391 0v212l-30 30h-331l-30-30v-212zm0 0"/><path d="m391 0v212l-30 30h-165v-242zm0 0"/></g><path d="m151 257h90v60h-90zm0 0" fill="#d8d8fc"/><path d="m196 257h45v60h-45zm0 0" fill="#a3a3d1"/><path d="m451 512c-33.089844 0-60-26.910156-60-60v-30c0-33.089844 26.910156-60 60-60s61 26.910156 61 60v30c0 33.089844-27.910156 60-61 60zm0 0" fill="#64e1dc"/><path d="m30 30h331v152h-331zm0 0" fill="#ffd396"/><path d="m196 30h165v152h-165zm0 0" fill="#ffb64c"/><path d="m0 212h391v60h-391zm0 0" fill="#f2f2fc"/><path d="m196 212h195v60h-195zm0 0" fill="#d8d8fc"/><path d="m90 302h211v30h-211zm0 0" fill="#f2f2fc"/><path d="m196 302h105v30h-105zm0 0" fill="#d8d8fc"/><path d="m301 392h30v30h-30zm0 0" fill="#00c8c8"/><path d="m90 392h31v30h-31zm0 0" fill="#64e1dc"/><path d="m151 392h60v30h-60zm0 0" fill="#64e1dc"/><path d="m90 452h121v30h-121zm0 0" fill="#64e1dc"/><path d="m241 452h30v30h-30zm0 0" fill="#00c8c8"/><path d="m241 392h30v30h-30zm0 0" fill="#00c8c8"/><path d="m30 392h30v30h-30zm0 0" fill="#64e1dc"/><path d="m30 452h30v30h-30zm0 0" fill="#64e1dc"/><path d="m301 452h30v30h-30zm0 0" fill="#00c8c8"/><path d="m196 392h15v30h-15zm0 0" fill="#00c8c8"/><path d="m196 452h15v30h-15zm0 0" fill="#00c8c8"/></svg>