<svg height="512pt" viewBox="0 -4 512 512" width="512pt" xmlns="http://www.w3.org/2000/svg" xmlns:xlink="http://www.w3.org/1999/xlink"><linearGradient id="a"><stop offset="0" stop-color="#662d91"/><stop offset=".437" stop-color="#3873b3"/><stop offset="1" stop-color="#00c9dd"/></linearGradient><linearGradient id="b" gradientTransform="matrix(1.08242 0 0 -1.08242 0 506.690075)" gradientUnits="userSpaceOnUse" x1="108.3991" x2="480.6219" xlink:href="#a" y1="430.5443" y2="58.3214"/><linearGradient id="c" gradientTransform="matrix(1.08242 0 0 -1.08242 0 506.690075)" gradientUnits="userSpaceOnUse" x1="25.6216" x2="397.8445" xlink:href="#a" y1="347.7667" y2="-24.4561"/><linearGradient id="d" gradientTransform="matrix(1.08242 0 0 -1.08242 0 506.690075)" gradientUnits="userSpaceOnUse" x1="86.7193" x2="458.9421" xlink:href="#a" y1="408.8644" y2="36.6416"/><linearGradient id="e" gradientTransform="matrix(1.08242 0 0 -1.08242 0 506.690075)" gradientUnits="userSpaceOnUse" x1="61.0977" x2="433.3205" xlink:href="#a" y1="383.2428" y2="11.02"/><linearGradient id="f" gradientTransform="matrix(1.08242 0 0 -1.08242 0 506.690075)" gradientUnits="userSpaceOnUse" x1="-21.6798" x2="350.543" xlink:href="#a" y1="300.4653" y2="-71.7575"/><linearGradient id="g" gradientTransform="matrix(1.08242 0 0 -1.08242 0 506.690075)" gradientUnits="userSpaceOnUse" x1="39.4179" x2="411.6407" xlink:href="#a" y1="361.563" y2="-10.6599"/><linearGradient id="h" gradientTransform="matrix(1.08242 0 0 -1.08242 0 506.690075)" gradientUnits="userSpaceOnUse" x1="43.8535" x2="416.0763" xlink:href="#a" y1="365.9986" y2="-6.2242"/><path d="m401.066406 307.328125c0 9.425781-7.640625 17.066406-17.066406 17.066406s-17.066406-7.640625-17.066406-17.066406 7.640625-17.066406 17.066406-17.066406 17.066406 7.640625 17.066406 17.066406zm0 0" fill="url(#b)"/><path d="m110.933594 307.328125c0 4.710937 3.820312 8.53125 8.53125 8.53125h170.667968c4.714844 0 8.535157-3.820313 8.535157-8.53125 0-4.714844-3.820313-8.535156-8.535157-8.535156h-170.667968c-4.710938 0-8.53125 3.820312-8.53125 8.535156zm0 0" fill="url(#c)"/><path d="m324.265625 315.859375h25.601563c4.714843 0 8.535156-3.820313 8.535156-8.535156 0-4.710938-3.820313-8.53125-8.535156-8.53125h-25.601563c-4.710937 0-8.53125 3.820312-8.53125 8.53125 0 4.714843 3.820313 8.535156 8.53125 8.535156zm0 0" fill="url(#d)"/><path d="m401.066406 409.726562c0 9.425782-7.640625 17.066407-17.066406 17.066407s-17.066406-7.640625-17.066406-17.066407c0-9.425781 7.640625-17.066406 17.066406-17.066406s17.066406 7.640625 17.066406 17.066406zm0 0" fill="url(#e)"/><path d="m110.933594 409.726562c0 4.714844 3.820312 8.535157 8.53125 8.535157h170.667968c4.714844 0 8.535157-3.820313 8.535157-8.535157 0-4.710937-3.820313-8.53125-8.535157-8.53125h-170.667968c-4.710938 0-8.53125 3.820313-8.53125 8.53125zm0 0" fill="url(#f)"/><path d="m324.265625 418.261719h25.601563c4.714843 0 8.535156-3.824219 8.535156-8.535157 0-4.714843-3.820313-8.535156-8.535156-8.535156h-25.601563c-4.710937 0-8.53125 3.820313-8.53125 8.535156 0 4.710938 3.820313 8.535157 8.53125 8.535157zm0 0" fill="url(#g)"/><path d="m451.414062 247.59375c32.988282-.097656 59.652344-26.921875 59.554688-59.910156-.097656-32.992188-26.921875-59.652344-59.910156-59.554688-6.109375.019532-12.179688.972656-18 2.832032.5625-4.476563.847656-8.988282.851562-13.5-1.105468-65.972657-55.484375-118.550782-121.457031-117.445313-48.140625.8125-91.089844 30.4375-108.941406 75.152344-34.527344-21.40625-79.871094-10.773438-101.277344 23.753906-6.96875 11.238281-10.78125 24.148437-11.03125 37.371094-28.324219-17.210938-65.238281-8.203125-82.453125 20.121093-17.210938 28.328126-8.203125 65.242188 20.121094 82.457032 9.566406 5.8125 20.566406 8.832031 31.757812 8.722656h186.839844v17.066406h-145.070312c-14.136719 0-25.597657 11.460938-25.597657 25.601563v34.132812c0 14.136719 11.460938 25.597657 25.597657 25.597657h145.070312v17.070312h-145.070312c-14.136719 0-25.597657 11.460938-25.597657 25.597656v34.132813c0 14.140625 11.460938 25.601562 25.597657 25.601562h145.246093c-.074219.28125-.132812.566407-.179687.851563v18.550781c-2.691406 1.574219-4.902344 3.855469-6.390625 6.597656-.691407-.226562-1.414063-.363281-2.140625-.402343h-230.398438c-4.714844 0-8.535156 3.820312-8.535156 8.535156 0 4.710937 3.820312 8.535156 8.535156 8.535156h230.398438c.730468-.050781 1.449218-.195312 2.140625-.4375 4.375 8.246094 14.609375 11.386719 22.855469 7.011719 2.988281-1.582031 5.429687-4.027344 7.011718-7.011719.6875.238281 1.402344.386719 2.125.4375h230.398438c4.714844 0 8.535156-3.824219 8.535156-8.535156 0-4.714844-3.820312-8.535156-8.535156-8.535156h-230.398438c-.730468.050781-1.449218.195312-2.140625.4375-1.488281-2.742188-3.699219-5.023438-6.394531-6.597657v-18.585937c-.042969-.285156-.101562-.570313-.179688-.851563h145.246094c14.140625 0 25.601563-11.460937 25.601563-25.601562v-34.132813c0-14.136718-11.460938-25.597656-25.601563-25.597656h-145.0625v-17.070312h145.066406c14.136719 0 25.601563-11.460938 25.601563-25.597657v-34.132812c0-14.140625-11.464844-25.601563-25.601563-25.601563h-145.066406v-17.066406zm-33.28125 145.066406v34.132813c0 4.714843-3.820312 8.535156-8.53125 8.535156h-307.203124c-4.710938 0-8.53125-3.820313-8.53125-8.535156v-34.132813c0-4.710937 3.820312-8.53125 8.53125-8.53125h307.203124c4.710938 0 8.53125 3.820313 8.53125 8.53125zm0-102.398437v34.132812c0 4.710938-3.820312 8.53125-8.53125 8.53125h-307.203124c-4.710938 0-8.53125-3.820312-8.53125-8.53125v-34.132812c0-4.714844 3.820312-8.535157 8.53125-8.535157h307.203124c4.710938 0 8.53125 3.820313 8.53125 8.535157zm-357.503906-59.734375c-23.558594-.382813-42.351562-19.792969-41.96875-43.355469.386719-23.558594 19.796875-42.347656 43.355469-41.964844 14.34375.230469 27.609375 7.65625 35.308594 19.757813 2.570312 3.949218 7.859375 5.066406 11.804687 2.492187 3.425782-2.234375 4.789063-6.582031 3.246094-10.367187-2.6875-6.476563-4.089844-13.414063-4.128906-20.429688.339844-30.925781 25.648437-55.738281 56.574218-55.464844 13.78125.054688 27.074219 5.101563 37.417969 14.207032 3.550781 3.097656 8.941407 2.726562 12.039063-.828125.839844-.964844 1.453125-2.101563 1.792968-3.335938 15.613282-54.332031 72.316407-85.71875 126.648438-70.105469 43.136719 12.398438 73.164062 51.453126 74.0625 96.328126-.035156 8.945312-1.285156 17.84375-3.710938 26.453124-1.257812 4.542969 1.40625 9.242188 5.945313 10.5 2.453125.679688 5.078125.230469 7.164063-1.226562 7.382812-5.203125 16.195312-7.992188 25.230468-7.992188 23.566406 0 42.667969 19.101563 42.667969 42.664063 0 23.566406-19.101563 42.667969-42.667969 42.667969h-186.878906v-8.535156c0-4.710938-3.820312-8.53125-8.535156-8.53125-4.710938 0-8.53125 3.820312-8.53125 8.53125v8.535156zm0 0" fill="url(#h)"/><path d="m256 196.394531c4.710938 0 8.535156-3.824219 8.535156-8.535156v-17.066406c0-4.714844-3.824218-8.535157-8.535156-8.535157s-8.535156 3.820313-8.535156 8.535157v17.066406c.003906 4.714844 3.824218 8.535156 8.535156 8.535156zm0 0" fill="url(#b)"/></svg>