<svg height="512pt" viewBox="0 -31 512 512" width="512pt" xmlns="http://www.w3.org/2000/svg"><path d="m447.699219 124.199219c-12-54.300781-60.597657-94.199219-116.699219-94.199219-14.097656 0-28.199219 2.699219-42 7.800781-9.898438-9.300781-21-17.101562-33-23.101562-18.601562-9.597657-39-14.699219-60-14.699219-70.5 0-128.699219 54.601562-134.398438 124.800781-35.699218 12.597657-61.601562 46.5-61.601562 85.199219 0 49.5 41.5 90 91 90h330c49.5 0 91-40.5 91-90 0-39.902344-27.101562-74.402344-64.300781-85.800781zm0 0" fill="#9bfcff"/><path d="m512 210c0 49.5-41.5 90-91 90h-165v-285.300781c12 6 23.101562 13.800781 33 23.101562 13.800781-5.101562 27.902344-7.800781 42-7.800781 56.101562 0 104.699219 39.898438 116.699219 94.199219 37.199219 11.398437 64.300781 45.898437 64.300781 85.800781zm0 0" fill="#64e1dc"/><g fill="#575f64"><path d="m241 210h30v180h-30zm0 0"/><path d="m241 420h30v30h-30zm0 0"/><path d="m181 420h-90v-30h60v-180h30zm0 0"/></g><path d="m421 420h-90v-210h30v180h60zm0 0" fill="#32393f"/><path d="m451 390h30v30h-30zm0 0" fill="#32393f"/><path d="m31 390h30v30h-30zm0 0" fill="#575f64"/><path d="m256 210h15v180h-15zm0 0" fill="#32393f"/><path d="m256 420h15v30h-15zm0 0" fill="#32393f"/></svg>