<svg height="496pt" viewBox="0 0 496 496" width="496pt" xmlns="http://www.w3.org/2000/svg" xmlns:xlink="http://www.w3.org/1999/xlink"><linearGradient id="a" gradientUnits="userSpaceOnUse" x1="248" x2="248" y1="496" y2="0"><stop offset="0" stop-color="#9f2fff"/><stop offset="1" stop-color="#0bb1d3"/></linearGradient><path d="m192 328c0-13.230469-10.769531-24-24-24s-24 10.769531-24 24 10.769531 24 24 24 24-10.769531 24-24zm-32 0c0-4.414062 3.59375-8 8-8s8 3.585938 8 8-3.59375 8-8 8-8-3.585938-8-8zm-20.289062-28.28125c-7.550782 7.554688-11.710938 17.601562-11.710938 28.28125s4.160156 20.726562 11.710938 28.28125c7.554687 7.550781 17.609374 11.71875 28.289062 11.71875s20.726562-4.167969 28.289062-11.71875l11.3125 11.3125c-10.585937 10.574219-24.640624 16.40625-39.601562 16.40625s-29.015625-5.832031-39.601562-16.40625c-10.582032-10.578125-16.398438-24.632812-16.398438-39.59375s5.824219-29.015625 16.398438-39.59375zm-33.933594-33.941406 11.3125 11.3125c-28.074219 28.070312-28.074219 73.757812 0 101.832031 28.070312 28.0625 73.75 28.078125 101.832031 0l11.308594 11.308594c-17.160157 17.160156-39.6875 25.738281-62.222657 25.738281-22.535156 0-45.070312-8.578125-62.222656-25.738281-34.320312-34.320313-34.320312-90.140625-.007812-124.453125zm390.222656-137.777344c0-70.574219-57.425781-128-128-128h-264v48h-80c-13.230469 0-24 10.769531-24 24v112c0 13.230469 10.769531 24 24 24h48v16h-16v16h112v-16h-16v-16h48c13.230469 0 24-10.769531 24-24v-112c0-13.230469-10.769531-24-24-24h-80v-32h186.167969c-39.40625 21.847656-66.167969 63.839844-66.167969 112 0 70.574219 57.425781 128 128 128 2.703125 0 5.34375-.238281 8-.40625v48.40625h-80c-13.230469 0-24 10.769531-24 24v112c0 13.230469 10.769531 24 24 24h48v16h-16v16h112v-16h-16v-16h48c13.230469 0 24-10.769531 24-24v-112c0-13.230469-10.769531-24-24-24h-80v-50.335938c59.136719-11.273437 104-63.296874 104-125.664062zm-360 96h-48v-16h48zm64-32h-176c-4.40625 0-8-3.585938-8-8v-8h192v8c0 4.414062-3.59375 8-8 8zm8-120v88h-192v-88c0-4.414062 3.59375-8 8-8h176c4.40625 0 8 3.585938 8 8zm200 408h-48v-16h48zm64-32h-176c-4.40625 0-8-3.585938-8-8v-8h192v8c0 4.414062-3.59375 8-8 8zm8-120v88h-192v-88c0-4.414062 3.59375-8 8-8h176c4.40625 0 8 3.585938 8 8zm-152.03125-166.152344-9.105469-5.464844c-9.167969-5.503906-14.863281-15.550781-14.863281-26.238281 0-12.585937 7.550781-23.746093 19.238281-28.425781 12.609375-5.039062 20.761719-17.078125 20.761719-30.664062 0-16.984376-4.832031-33.808594-13.640625-48.40625 9.375-3.359376 19.304687-5.503907 29.640625-6.242188v10.21875c0 16.070312 7.984375 30.984375 21.34375 39.886719l12.433594 8.28125c8.902344 5.941406 14.222656 15.871093 14.222656 26.582031 0 19.417969 11.574219 36.785156 29.503906 44.25l37.464844 15.605469c-3.351562 10.761719-8.304688 20.808593-14.542969 29.914062-4.058593-11.914062-11.515625-22.457031-21.808593-30.183593-7.707032-5.785157-17.242188-8.960938-26.875-8.960938-19.886719 0-37.589844 13.351562-43.054688 32.480469-5.136719 17.96875-7.878906 36.480469-8.449219 55.128906-7.453125-.511719-14.695312-1.753906-21.679687-3.664063 3.519531-6.023437 5.441406-12.890624 5.441406-19.945312v-25.832031c0-11.527344-6.144531-22.375-16.03125-28.320313zm48.269531 77.738282c.570313-17.152344 3.113281-34.1875 7.832031-50.714844 3.515626-12.296875 14.890626-20.871094 27.671876-20.871094 6.1875 0 12.320312 2.046875 17.265624 5.761719 10.578126 7.925781 17.183594 19.8125 18.566407 32.933593-18.496094 18.703126-43.527344 30.847657-71.335938 32.890626zm103.761719-111.585938c0 5.929688-.601562 11.703125-1.488281 17.375l-34.855469-14.519531c-11.945312-4.976563-19.65625-16.550781-19.65625-29.480469 0-16.070312-7.984375-30.984375-21.34375-39.886719l-12.433594-8.289062c-8.902344-5.933594-14.222656-15.863281-14.222656-26.574219v-10.21875c58.023438 4.128906 104 52.539062 104 111.59375zm-224 0c0-42.832031 24.191406-80.078125 59.601562-98.921875 8.03125 12.523437 12.398438 27.203125 12.398438 41.984375 0 7-4.199219 13.203125-10.703125 15.800781-17.792969 7.121094-29.296875 24.113281-29.296875 43.28125 0 16.269531 8.671875 31.582031 22.632812 39.96875l9.101563 5.460938c5.097656 3.058593 8.265625 8.648437 8.265625 14.59375v25.832031c0 5.320312-1.785156 10.3125-5.03125 14.472656-39.382812-17.375-66.96875-56.738281-66.96875-102.472656zm0 0" fill="url(#a)"/></svg>