<?xml version="1.0" encoding="UTF-8" standalone="no"?>
<svg
   xmlns:dc="http://purl.org/dc/elements/1.1/"
   xmlns:cc="http://creativecommons.org/ns#"
   xmlns:rdf="http://www.w3.org/1999/02/22-rdf-syntax-ns#"
   xmlns:svg="http://www.w3.org/2000/svg"
   xmlns="http://www.w3.org/2000/svg"
   viewBox="0 0 477.72 104.06667"
   height="104.06667"
   width="477.72"
   xml:space="preserve"
   id="svg2"
   version="1.1"><metadata
     id="metadata8"><rdf:RDF><cc:Work
         rdf:about=""><dc:format>image/svg+xml</dc:format><dc:type
           rdf:resource="http://purl.org/dc/dcmitype/StillImage" /></cc:Work></rdf:RDF></metadata><defs
     id="defs6"><clipPath
       id="clipPath20"
       clipPathUnits="userSpaceOnUse"><path
         id="path18"
         d="M 0,780.512 V 0 h 3582.91 v 780.512 z" /></clipPath></defs><g
     transform="matrix(1.3333333,0,0,-1.3333333,0,104.06667)"
     id="g10"><g
       transform="scale(0.1)"
       id="g12"><g
         id="g14"><g
           clip-path="url(#clipPath20)"
           id="g16"><path
             id="path22"
             style="fill:#1c2034;fill-opacity:1;fill-rule:nonzero;stroke:none"
             d="m 1438.13,152.449 c -37.41,31.692 -73.96,64.067 -110.41,97.024 l -35.47,-39.813 41.26,-35.129 c -9.77,-4.695 -21,-6.875 -33.3,-6.875 -44.89,0 -76.74,36.203 -76.74,79.649 v 0.715 c 0,43.433 31.12,78.914 76.01,78.914 44.89,0 76.75,-36.192 76.75,-79.629 v -0.731 c 0,-2.98 -0.14,-5.929 -0.41,-8.808 l 47.92,-41.953 c 6.91,15.859 10.77,33.25 10.77,51.492 v 0.715 c 0,72.039 -56.11,130.32 -134.3,130.32 -78.19,0 -135.02,-59.004 -135.02,-131.035 v -0.731 c 0,-72.043 56.11,-130.324 134.29,-130.324 28.24,0 53.94,7.969 75.31,21.73 l 27.87,-24.984 z m 1327.45,-32.078 h 95.41 c 74.52,0 135.7,49.492 135.7,126.758 v 0.801 c 0,77.363 -61.34,125.957 -135.7,125.957 h -95.41 z m 31.22,25.117 V 348.77 h 64.19 c 59.57,0 101.64,-42.059 101.64,-101.641 v -0.82 c 0,-59.707 -42.2,-100.821 -101.64,-100.821 z m 287.28,-25.117 h 185.51 v 24.297 h -154.7 v 91.328 h 134.34 v 24.297 h -134.34 v 89.277 h 152.66 v 24.317 h -183.47 z m 362.17,-2.031 h 34.08 l 102.58,255.547 h -33.36 l -85.45,-230.203 -85.44,230.203 h -34.99 z m -1810.72,-1.719 c 68.06,0 111.14,37.649 111.14,114.387 v 142.984 h -55.75 V 228.84 c 0,-40.188 -20.63,-60.82 -54.66,-60.82 -34.03,0 -54.66,21.367 -54.66,62.625 v 143.347 h -55.76 V 229.199 c 0,-74.57 41.64,-112.578 109.69,-112.578 z m 592.09,134.297 v 72.766 h 55.39 c 27.15,0 43.8,-12.305 43.8,-36.204 v -0.722 c 0,-21.356 -15.56,-35.84 -42.71,-35.84 z m -55.74,-130.313 h 55.74 v 81.086 h 43.81 l 54.3,-81.086 h 65.15 l -61.89,90.489 c 32.22,11.953 54.3,37.656 54.3,78.554 v 0.723 c 0,23.887 -7.6,43.801 -21.72,57.922 -16.65,16.648 -41.63,25.699 -73.85,25.699 h -115.84 z m 307.45,0 h 192.94 v 49.583 h -137.56 v 53.222 h 119.46 v 49.586 h -119.46 v 51.399 h 135.74 v 49.597 h -191.12 z m -551.19,253.387 h 49.23 l 102.44,-255.203 h -60.09 l -66.25,178.469 -66.24,-178.469 h -61.54 z M 989.141,116.984 c 54.659,0 93.029,28.231 93.029,78.543 v 0.735 c 0,44.16 -28.96,62.617 -80.36,76.015 -43.802,11.219 -54.665,16.649 -54.665,33.309 v 0.715 c 0,12.312 11.222,22.09 32.582,22.09 21.353,0 43.433,-9.426 65.883,-24.981 l 28.96,41.992 c -25.7,20.625 -57.21,32.207 -94.117,32.207 -51.769,0 -88.691,-30.402 -88.691,-76.367 v -0.722 c 0,-50.325 32.945,-64.446 83.984,-77.473 42.354,-10.859 51.044,-18.106 51.044,-32.219 v -0.73 c 0,-14.832 -13.76,-23.887 -36.571,-23.887 -28.949,0 -52.848,11.945 -75.653,30.773 l -32.941,-39.453 c 30.406,-27.148 69.141,-40.547 107.516,-40.547" /><path
             id="path24"
             style="fill:#1c2034;fill-opacity:1;fill-rule:evenodd;stroke:none"
             d="M 329.762,22.3047 C 222.551,35.2656 152.336,122.492 142.141,226.574 c -10.504,107.227 49.304,200.942 -4.442,349.153 -4.004,11.035 0.196,35.718 22.481,35.718 h 95.039 c 14.668,0 29.035,9.602 29.105,32.907 l 0.356,111.949 c 0.148,48.183 217.043,-33.125 99.539,-231.844 C 344.047,456.52 227.98,372.129 238.852,227.512 244.527,151.945 265.211,74.082 329.762,22.3047 Z M 112.898,762.848 V 665.16 c 0,-9.719 7.946,-17.66 17.665,-17.66 h 97.691 c 9.719,0 17.66,7.941 17.66,17.66 v 97.688 c 0,9.722 -7.941,17.664 -17.66,17.664 h -97.691 c -9.719,0 -17.665,-7.942 -17.665,-17.664 z M 0,738.168 V 687.25 c 0,-8.176 6.69531,-14.863 14.8672,-14.863 h 50.9141 c 8.1835,0 14.8671,6.687 14.8671,14.863 v 50.918 c 0,8.176 -6.6836,14.863 -14.8671,14.863 H 14.8672 C 6.69531,753.031 0,746.344 0,738.168 Z M 34.6328,633.234 v -38.347 c 0,-3.813 3.1211,-6.926 6.9336,-6.926 h 38.3438 c 3.8164,0 6.9296,3.113 6.9296,6.926 v 38.347 c 0,3.813 -3.1132,6.934 -6.9296,6.934 H 41.5664 c -3.8125,0 -6.9336,-3.121 -6.9336,-6.934" /><path
             id="path26"
             style="fill:#1c2034;fill-opacity:1;fill-rule:evenodd;stroke:none"
             d="m 685.777,563.422 c -8.593,-8.149 -22.031,-9.098 -31.808,-1.664 -9.766,7.437 -12.547,20.738 -7.149,31.316 8.606,8.149 22.043,9.098 31.809,1.668 9.766,-7.437 12.559,-20.738 7.148,-31.32 z M 557.379,45.1953 h 105.535 c 50.422,0 -7.285,30.4102 -49.48,41.7188 18.015,14.1409 52.468,51.9529 68.789,106.5039 25.84,86.387 -61.27,78.898 -58.606,42.961 C 628.395,172.238 591.195,99.4258 554.828,76.5938 537.203,65.5273 541.402,45.1953 557.379,45.1953 Z m 246.57,485.7457 c 1.262,33.997 -45.164,108.977 -84.297,126.446 -5.359,22.535 -17.82,44.156 -37.097,64.89 -6.739,-14.875 -13.477,-29.742 -20.215,-44.617 -12.383,2.442 -41.758,-3.234 -52.481,-5.305 -15.214,21.766 -33.3,35.477 -53.976,41.915 -3.106,-24.786 -6.211,-49.571 -9.305,-74.36 C 515.113,613.414 513.063,574.672 513.297,530.629 513.512,487.461 299.109,413.137 239.945,276.055 189.273,158.645 242.273,0 393.379,0 H 528.16 c 60.547,0 -11.582,42.8438 -67.207,57.1797 237.129,136.2383 72.664,356.9763 -119.191,238.7113 -6.367,-3.926 25.547,65.195 115.871,72.859 28.75,2.441 81.543,1.535 126.64,-63.164 10.938,-15.684 33.692,-33.016 25.762,13.906 -3.926,23.235 -17.461,55.774 -30.527,72.813 -36.68,47.832 9.57,81.925 69.004,81.925 86.816,0 153.75,10.969 155.437,56.711" /></g></g></g></g></svg>